<mxfile host="app.diagrams.net" agent="Mozilla/5.0 (Windows NT 10.0; Win64; x64) AppleWebKit/537.36 (KHTML, like Gecko) Chrome/134.0.0.0 Safari/537.36 Edg/134.0.0.0" version="26.2.8">
  <diagram name="Page-1" id="Y6L_lOyl2PR1Z7PrYQgo">
    <mxGraphModel dx="866" dy="482" grid="1" gridSize="10" guides="1" tooltips="1" connect="1" arrows="1" fold="1" page="1" pageScale="1" pageWidth="850" pageHeight="1100" math="0" shadow="0">
      <root>
        <mxCell id="0" />
        <mxCell id="1" parent="0" />
        <mxCell id="JNTNtjrh18XB90PpzGU6-1" value="" style="ellipse;whiteSpace=wrap;html=1;aspect=fixed;" vertex="1" parent="1">
          <mxGeometry x="50" y="150" width="60" height="60" as="geometry" />
        </mxCell>
        <mxCell id="JNTNtjrh18XB90PpzGU6-3" value="" style="endArrow=none;html=1;rounded=0;" edge="1" parent="1">
          <mxGeometry width="50" height="50" relative="1" as="geometry">
            <mxPoint x="30" y="250" as="sourcePoint" />
            <mxPoint x="130" y="250" as="targetPoint" />
          </mxGeometry>
        </mxCell>
        <mxCell id="JNTNtjrh18XB90PpzGU6-4" value="" style="endArrow=none;html=1;rounded=0;" edge="1" parent="1">
          <mxGeometry width="50" height="50" relative="1" as="geometry">
            <mxPoint x="30" y="360" as="sourcePoint" />
            <mxPoint x="80" y="320" as="targetPoint" />
          </mxGeometry>
        </mxCell>
        <mxCell id="JNTNtjrh18XB90PpzGU6-5" value="" style="endArrow=none;html=1;rounded=0;" edge="1" parent="1">
          <mxGeometry width="50" height="50" relative="1" as="geometry">
            <mxPoint x="110" y="360" as="sourcePoint" />
            <mxPoint x="80" y="320" as="targetPoint" />
          </mxGeometry>
        </mxCell>
        <mxCell id="JNTNtjrh18XB90PpzGU6-14" style="edgeStyle=orthogonalEdgeStyle;rounded=0;orthogonalLoop=1;jettySize=auto;html=1;" edge="1" parent="1" source="JNTNtjrh18XB90PpzGU6-6">
          <mxGeometry relative="1" as="geometry">
            <mxPoint x="640" y="150" as="targetPoint" />
          </mxGeometry>
        </mxCell>
        <mxCell id="JNTNtjrh18XB90PpzGU6-6" value="User Service" style="rounded=1;whiteSpace=wrap;html=1;fillColor=#DDFFDB;" vertex="1" parent="1">
          <mxGeometry x="320" y="120" width="120" height="60" as="geometry" />
        </mxCell>
        <mxCell id="JNTNtjrh18XB90PpzGU6-15" style="edgeStyle=orthogonalEdgeStyle;rounded=0;orthogonalLoop=1;jettySize=auto;html=1;" edge="1" parent="1" source="JNTNtjrh18XB90PpzGU6-7">
          <mxGeometry relative="1" as="geometry">
            <mxPoint x="640" y="390" as="targetPoint" />
          </mxGeometry>
        </mxCell>
        <mxCell id="JNTNtjrh18XB90PpzGU6-7" value="Leave Service" style="rounded=1;whiteSpace=wrap;html=1;fillColor=#D1FFE0;" vertex="1" parent="1">
          <mxGeometry x="320" y="360" width="120" height="60" as="geometry" />
        </mxCell>
        <mxCell id="JNTNtjrh18XB90PpzGU6-8" value="Notify Service" style="rhombus;whiteSpace=wrap;html=1;fillColor=#E8FF19;" vertex="1" parent="1">
          <mxGeometry x="330" y="230" width="100" height="80" as="geometry" />
        </mxCell>
        <mxCell id="JNTNtjrh18XB90PpzGU6-10" style="edgeStyle=orthogonalEdgeStyle;rounded=0;orthogonalLoop=1;jettySize=auto;html=1;" edge="1" parent="1" source="JNTNtjrh18XB90PpzGU6-9" target="JNTNtjrh18XB90PpzGU6-8">
          <mxGeometry relative="1" as="geometry" />
        </mxCell>
        <mxCell id="JNTNtjrh18XB90PpzGU6-11" style="edgeStyle=orthogonalEdgeStyle;rounded=0;orthogonalLoop=1;jettySize=auto;html=1;" edge="1" parent="1" source="JNTNtjrh18XB90PpzGU6-9">
          <mxGeometry relative="1" as="geometry">
            <mxPoint x="235" y="160" as="targetPoint" />
          </mxGeometry>
        </mxCell>
        <mxCell id="JNTNtjrh18XB90PpzGU6-12" style="edgeStyle=orthogonalEdgeStyle;rounded=0;orthogonalLoop=1;jettySize=auto;html=1;" edge="1" parent="1" source="JNTNtjrh18XB90PpzGU6-9">
          <mxGeometry relative="1" as="geometry">
            <mxPoint x="235" y="400" as="targetPoint" />
          </mxGeometry>
        </mxCell>
        <mxCell id="JNTNtjrh18XB90PpzGU6-9" value="APi Gate Way" style="whiteSpace=wrap;html=1;aspect=fixed;fillColor=#FFC849;" vertex="1" parent="1">
          <mxGeometry x="190" y="240" width="90" height="90" as="geometry" />
        </mxCell>
        <mxCell id="JNTNtjrh18XB90PpzGU6-13" value="DB" style="shape=cylinder3;whiteSpace=wrap;html=1;boundedLbl=1;backgroundOutline=1;size=15;fillColor=#FF11BF;" vertex="1" parent="1">
          <mxGeometry x="590" y="200" width="100" height="120" as="geometry" />
        </mxCell>
        <mxCell id="JNTNtjrh18XB90PpzGU6-16" style="edgeStyle=orthogonalEdgeStyle;rounded=0;orthogonalLoop=1;jettySize=auto;html=1;" edge="1" parent="1">
          <mxGeometry relative="1" as="geometry">
            <mxPoint x="639.5" y="340" as="targetPoint" />
            <mxPoint x="639.5" y="390" as="sourcePoint" />
            <Array as="points">
              <mxPoint x="639.5" y="360" />
              <mxPoint x="639.5" y="360" />
            </Array>
          </mxGeometry>
        </mxCell>
        <mxCell id="JNTNtjrh18XB90PpzGU6-18" style="edgeStyle=orthogonalEdgeStyle;rounded=0;orthogonalLoop=1;jettySize=auto;html=1;" edge="1" parent="1">
          <mxGeometry relative="1" as="geometry">
            <mxPoint x="639.5" y="180" as="targetPoint" />
            <mxPoint x="639.5" y="150" as="sourcePoint" />
          </mxGeometry>
        </mxCell>
        <mxCell id="JNTNtjrh18XB90PpzGU6-20" value="" style="endArrow=classic;startArrow=classic;html=1;rounded=0;exitX=0.5;exitY=1;exitDx=0;exitDy=0;exitPerimeter=0;" edge="1" parent="1" source="JNTNtjrh18XB90PpzGU6-6">
          <mxGeometry width="50" height="50" relative="1" as="geometry">
            <mxPoint x="380" y="190" as="sourcePoint" />
            <mxPoint x="380" y="220" as="targetPoint" />
          </mxGeometry>
        </mxCell>
        <mxCell id="JNTNtjrh18XB90PpzGU6-21" value="" style="endArrow=classic;startArrow=classic;html=1;rounded=0;exitX=0.5;exitY=1;exitDx=0;exitDy=0;exitPerimeter=0;" edge="1" parent="1">
          <mxGeometry width="50" height="50" relative="1" as="geometry">
            <mxPoint x="379.5" y="310" as="sourcePoint" />
            <mxPoint x="379.5" y="350" as="targetPoint" />
          </mxGeometry>
        </mxCell>
        <mxCell id="JNTNtjrh18XB90PpzGU6-22" value="" style="endArrow=classic;html=1;rounded=0;" edge="1" parent="1">
          <mxGeometry width="50" height="50" relative="1" as="geometry">
            <mxPoint x="240" y="160" as="sourcePoint" />
            <mxPoint x="310" y="160" as="targetPoint" />
          </mxGeometry>
        </mxCell>
        <mxCell id="JNTNtjrh18XB90PpzGU6-23" value="" style="endArrow=classic;html=1;rounded=0;" edge="1" parent="1">
          <mxGeometry width="50" height="50" relative="1" as="geometry">
            <mxPoint x="240" y="400" as="sourcePoint" />
            <mxPoint x="310" y="400" as="targetPoint" />
          </mxGeometry>
        </mxCell>
        <mxCell id="JNTNtjrh18XB90PpzGU6-24" value="" style="endArrow=none;html=1;rounded=0;entryX=0.5;entryY=1;entryDx=0;entryDy=0;" edge="1" parent="1" target="JNTNtjrh18XB90PpzGU6-1">
          <mxGeometry width="50" height="50" relative="1" as="geometry">
            <mxPoint x="80" y="320" as="sourcePoint" />
            <mxPoint x="130" y="270" as="targetPoint" />
          </mxGeometry>
        </mxCell>
        <mxCell id="JNTNtjrh18XB90PpzGU6-25" value="USERS" style="text;html=1;align=center;verticalAlign=middle;resizable=0;points=[];autosize=1;strokeColor=none;fillColor=none;" vertex="1" parent="1">
          <mxGeometry x="40" y="408" width="60" height="30" as="geometry" />
        </mxCell>
        <mxCell id="JNTNtjrh18XB90PpzGU6-26" value="" style="endArrow=classic;html=1;rounded=0;" edge="1" parent="1">
          <mxGeometry width="50" height="50" relative="1" as="geometry">
            <mxPoint x="110" y="284.5" as="sourcePoint" />
            <mxPoint x="180" y="284.5" as="targetPoint" />
          </mxGeometry>
        </mxCell>
      </root>
    </mxGraphModel>
  </diagram>
</mxfile>
